<?xml version="1.0" encoding="UTF-8" standalone="no"?>
<!-- Created with Inkscape (http://www.inkscape.org/) -->

<svg
   xmlns:dc="http://purl.org/dc/elements/1.1/"
   xmlns:cc="http://creativecommons.org/ns#"
   xmlns:rdf="http://www.w3.org/1999/02/22-rdf-syntax-ns#"
   xmlns:svg="http://www.w3.org/2000/svg"
   xmlns="http://www.w3.org/2000/svg"
   xmlns:sodipodi="http://sodipodi.sourceforge.net/DTD/sodipodi-0.dtd"
   xmlns:inkscape="http://www.inkscape.org/namespaces/inkscape"
   width="210mm"
   height="297mm"
   viewBox="0 0 210 297"
   version="1.1"
   id="svg8"
   sodipodi:docname="logo.svg"
   inkscape:version="0.92.2 (5c3e80d, 2017-08-06)">
  <defs
     id="defs2">
    <inkscape:perspective
       sodipodi:type="inkscape:persp3d"
       inkscape:vp_x="-9.0335096 : 262.63332 : 1"
       inkscape:vp_y="0 : 447.68879 : 0"
       inkscape:vp_z="101.71292 : 262.63332 : 1"
       inkscape:persp3d-origin="46.339702 : 240.47272 : 1"
       id="perspective38" />
  </defs>
  <sodipodi:namedview
     id="base"
     pagecolor="#ffffff"
     bordercolor="#666666"
     borderopacity="1.0"
     inkscape:pageopacity="0.0"
     inkscape:pageshadow="2"
     inkscape:zoom="0.35"
     inkscape:cx="400"
     inkscape:cy="560"
     inkscape:document-units="mm"
     inkscape:current-layer="layer1"
     showgrid="false"
     inkscape:window-width="1366"
     inkscape:window-height="705"
     inkscape:window-x="-8"
     inkscape:window-y="-8"
     inkscape:window-maximized="1" />
  <metadata
     id="metadata5">
    <rdf:RDF>
      <cc:Work
         rdf:about="">
        <dc:format>image/svg+xml</dc:format>
        <dc:type
           rdf:resource="http://purl.org/dc/dcmitype/StillImage" />
      </cc:Work>
    </rdf:RDF>
  </metadata>
  <g
     inkscape:label="Capa 1"
     inkscape:groupmode="layer"
     id="layer1">
    <text
       xml:space="preserve"
       style="font-style:italic;font-variant:normal;font-weight:bold;font-stretch:normal;font-size:22.57777786px;line-height:1.25;font-family:'Matura MT Script Capitals';-inkscape-font-specification:'Matura MT Script Capitals Bold Italic';letter-spacing:0px;word-spacing:0px;fill:#000000;fill-opacity:1;stroke:none;stroke-width:0.26458332;"
       x="18.142857"
       y="58.875"
       id="text12"><tspan
         sodipodi:role="line"
         id="tspan10"
         x="18.142857"
         y="79.699913"
         style="font-size:22.57777786px;stroke-width:0.26458332;-inkscape-font-specification:'Matura MT Script Capitals Bold Italic';font-family:'Matura MT Script Capitals';font-weight:bold;font-style:italic;font-stretch:normal;font-variant:normal;" /></text>
    <text
       xml:space="preserve"
       style="font-style:italic;font-variant:normal;font-weight:bold;font-stretch:normal;font-size:10.58333302px;line-height:1.25;font-family:Ravie;-inkscape-font-specification:'Ravie Bold Italic';letter-spacing:0px;word-spacing:0px;fill:#000000;fill-opacity:1;stroke:none;stroke-width:0.26458332;"
       x="18.898809"
       y="46.779762"
       id="text16"><tspan
         sodipodi:role="line"
         id="tspan14"
         x="18.898809"
         y="56.541439"
         style="stroke-width:0.26458332;-inkscape-font-specification:'Ravie Bold Italic';font-family:Ravie;font-weight:bold;font-style:italic;font-stretch:normal;font-variant:normal;" /></text>
    <text
       xml:space="preserve"
       style="font-style:italic;font-variant:normal;font-weight:bold;font-stretch:normal;font-size:22.57777778px;line-height:1.25;font-family:Magneto;-inkscape-font-specification:'Magneto Bold Italic';letter-spacing:0px;word-spacing:0px;fill:#000000;fill-opacity:1;stroke:none;stroke-width:0.26458332;"
       x="19.654762"
       y="33.172619"
       id="text20"><tspan
         sodipodi:role="line"
         id="tspan18"
         x="19.654762"
         y="42.934296"
         style="stroke-width:0.26458332;font-size:22.57777778px;" /></text>
    <text
       xml:space="preserve"
       style="font-style:italic;font-variant:normal;font-weight:bold;font-stretch:normal;font-size:10.58333302px;line-height:1.25;font-family:Ravie;-inkscape-font-specification:'Ravie Bold Italic';letter-spacing:0px;word-spacing:0px;fill:#000000;fill-opacity:1;stroke:none;stroke-width:0.26458332;"
       x="21.922617"
       y="23.345238"
       id="text24"><tspan
         sodipodi:role="line"
         id="tspan22"
         x="21.922617"
         y="33.106915"
         style="stroke-width:0.26458332;-inkscape-font-specification:'Ravie Bold Italic';font-family:Ravie;font-weight:bold;font-style:italic;font-stretch:normal;font-variant:normal;" /></text>
    <text
       xml:space="preserve"
       style="font-style:italic;font-variant:normal;font-weight:bold;font-stretch:normal;font-size:22.57777778px;line-height:1.25;font-family:Magneto;-inkscape-font-specification:'Magneto Bold Italic';letter-spacing:0px;word-spacing:0px;fill:#000000;fill-opacity:1;stroke:none;stroke-width:0.26458332;"
       x="18.898809"
       y="19.565475"
       id="text28"><tspan
         sodipodi:role="line"
         id="tspan26"
         x="18.898809"
         y="29.327154"
         style="stroke-width:0.26458332;font-size:22.57777778px;" /></text>
    <g
       sodipodi:type="inkscape:box3d"
       id="g40"
       inkscape:perspectiveID="#perspective38"
       inkscape:corner0="0.90235232 : 0.11425546 : 0 : 1"
       inkscape:corner7="0.028967099 : 0.014262267 : 0.82969383 : 1">
      <path
         sodipodi:type="inkscape:box3dside"
         id="path42"
         style="fill:#353564;fill-rule:evenodd;stroke:none;stroke-width:0.48589599;stroke-linejoin:round"
         inkscape:box3dsidetype="6"
         d="m 20.074249,19.127508 v 23.53183 L 44.86706,40.140947 V 23.755488 Z"
         points="20.074249,42.659338 44.86706,40.140947 44.86706,23.755488 20.074249,19.127508 " />
      <path
         sodipodi:type="inkscape:box3dside"
         id="path50"
         style="fill:#afafde;fill-rule:evenodd;stroke:none;stroke-width:0.48589599;stroke-linejoin:round"
         inkscape:box3dsidetype="13"
         d="M 20.074249,42.659338 44.780857,49.698123 70.194951,42.854272 44.86706,40.140947 Z"
         points="44.780857,49.698123 70.194951,42.854272 44.86706,40.140947 20.074249,42.659338 " />
      <path
         sodipodi:type="inkscape:box3dside"
         id="path52"
         style="fill:#e9e9ff;fill-rule:evenodd;stroke:none;stroke-width:0.48589599;stroke-linejoin:round"
         inkscape:box3dsidetype="11"
         d="m 44.86706,23.755488 25.327891,-4.986206 v 24.08499 L 44.86706,40.140947 Z"
         points="70.194951,18.769282 70.194951,42.854272 44.86706,40.140947 44.86706,23.755488 " />
      <path
         sodipodi:type="inkscape:box3dside"
         id="path44"
         style="fill:#4d4d9f;fill-rule:evenodd;stroke:none;stroke-width:0.48589599;stroke-linejoin:round"
         inkscape:box3dsidetype="5"
         d="M 20.074249,19.127508 44.780857,6.1925234 70.194951,18.769282 44.86706,23.755488 Z"
         points="44.780857,6.1925234 70.194951,18.769282 44.86706,23.755488 20.074249,19.127508 " />
      <path
         sodipodi:type="inkscape:box3dside"
         id="path48"
         style="fill:#d7d7ff;fill-rule:evenodd;stroke:none;stroke-width:0.48589599;stroke-linejoin:round"
         inkscape:box3dsidetype="14"
         d="M 44.780857,6.1925234 V 49.698123 l 25.414094,-6.843851 v -24.08499 z"
         points="44.780857,49.698123 70.194951,42.854272 70.194951,18.769282 44.780857,6.1925234 " />
      <path
         sodipodi:type="inkscape:box3dside"
         id="path46"
         style="fill:#8686bf;fill-rule:evenodd;stroke:none;stroke-width:0.48589599;stroke-linejoin:round"
         inkscape:box3dsidetype="3"
         d="M 20.074249,19.127508 44.780857,6.1925234 V 49.698123 L 20.074249,42.659338 Z"
         points="44.780857,6.1925234 44.780857,49.698123 20.074249,42.659338 20.074249,19.127508 " />
    </g>
    <text
       xml:space="preserve"
       style="font-style:italic;font-variant:normal;font-weight:bold;font-stretch:normal;font-size:22.87112427px;line-height:1.25;font-family:Magneto;-inkscape-font-specification:'Magneto Bold Italic';letter-spacing:0px;word-spacing:0px;fill:#000000;fill-opacity:1;stroke:none;stroke-width:0.2382409"
       x="36.595398"
       y="25.472319"
       id="text32"
       transform="scale(0.62821339,1.5918158)"><tspan
         sodipodi:role="line"
         id="tspan30"
         x="36.595398"
         y="25.472319"
         style="stroke-width:0.2382409">A</tspan></text>
    <text
       xml:space="preserve"
       style="font-style:italic;font-variant:normal;font-weight:bold;font-stretch:normal;font-size:22.87112427px;line-height:1.25;font-family:Magneto;-inkscape-font-specification:'Magneto Bold Italic';letter-spacing:0px;word-spacing:0px;fill:#000000;fill-opacity:1;stroke:none;stroke-width:0.2382409"
       x="80.408661"
       y="26.497065"
       id="text32-4"
       transform="scale(0.62821339,1.5918158)"><tspan
         sodipodi:role="line"
         id="tspan30-3"
         x="80.408661"
         y="26.497065"
         style="stroke-width:0.2382409">V</tspan></text>
    <path
       id="path29"
       d="m 15.763234,41.328327 c 2.322232,2.672705 5.120301,4.879999 7.843179,7.12511 3.877904,2.999433 8.071125,5.598017 12.344859,7.994417 3.20003,1.77155 6.658531,2.81667 10.254388,3.368045 2.689997,0.340292 5.404075,0.368195 8.111177,0.361022 0.850043,-0.118843 1.042509,-0.07258 1.794873,-0.439209 0.244731,-0.119258 0.931709,-0.563398 0.694637,-0.429559 -15.725484,8.877896 -10.501032,6.692183 -7.683037,4.058148 3.86666,-4.322387 9.1773,-7.695771 14.954414,-8.709253 3.193582,-0.42056 6.415984,-0.522745 9.632913,-0.581062 1.00222,-0.159353 2.053463,-0.153082 3.005968,-0.551031 0.489196,-0.204383 0.924105,-0.520015 1.388769,-0.775306 -2.977626,1.703623 -5.955255,3.407246 -8.932881,5.110871 1.396915,-0.744098 2.272165,-1.953916 2.960454,-3.338605 0.715378,-1.580732 1.337334,-3.196918 1.775053,-4.876289 0.398137,-1.566389 0.383847,-3.186875 0.542398,-4.783556 0.06867,-0.821473 0.314619,-1.588444 0.601054,-2.35358 0,0 10.195719,-4.621588 10.195719,-4.621588 v 0 c -0.410144,0.637977 -0.701066,1.258867 -0.75991,2.033598 -0.294338,1.612453 -0.12424,3.285652 -0.51512,4.892048 -0.381854,1.733738 -0.942258,3.41807 -1.673656,5.03687 -0.558784,1.520235 -1.355799,3.004707 -2.687868,3.979688 -6.153581,3.546676 -8.736195,6.57552 -14.864003,6.780329 -3.159775,0.0379 -6.339609,0.117147 -9.449683,0.73056 -4.655651,1.2969 -1.680514,0.61029 6.82625,-4.560425 0.293399,-0.178339 -0.625391,0.28874 -0.914683,0.473671 -0.746454,0.47717 -1.217978,1.16406 -1.736797,1.860105 -0.393359,0.376666 -0.664297,0.897313 -1.129424,1.180624 -4.44595,2.708047 -7.976873,6.273649 -13.028795,6.414846 -2.716014,-0.04465 -5.436502,-0.141546 -8.124018,-0.571441 -3.651439,-0.680411 -7.153296,-1.844458 -10.362738,-3.755546 -4.289433,-2.473664 -8.508114,-5.12698 -12.427074,-8.156287 -2.838322,-2.281327 -5.7217023,-4.5296 -8.2728202,-7.137715 0,0 9.6364022,-5.7595 9.6364022,-5.7595 z"
       inkscape:connector-curvature="0"
       style="stroke-width:0.26458332" />
  </g>
</svg>
